STARTFONT 2.1
FONT -FontForge-Comic Sans MS-Book-R-Normal-SansMS-19-180-75-75-P-106-ISO10646-1
SIZE 18 75 75
FONTBOUNDINGBOX 20 24 -1 -6
COMMENT "Generated by fontforge, http://fontforge.sourceforge.net"
COMMENT "(c) 2018 Microsoft Corporation. All Rights Reserved."
STARTPROPERTIES 39
FOUNDRY "FontForge"
FAMILY_NAME "Comic Sans MS"
WEIGHT_NAME "Book"
SLANT "R"
SETWIDTH_NAME "Normal"
ADD_STYLE_NAME "SansMS"
PIXEL_SIZE 19
POINT_SIZE 180
RESOLUTION_X 75
RESOLUTION_Y 75
SPACING "P"
AVERAGE_WIDTH 106
CHARSET_REGISTRY "ISO10646"
CHARSET_ENCODING "1"
FONTNAME_REGISTRY ""
CHARSET_COLLECTIONS "ISO10646-1"
FONT_NAME "ComicSansMS"
FACE_NAME "Comic Sans MS"
COPYRIGHT "(c) 2018 Microsoft Corporation. All Rights Reserved."
FONT_VERSION "5.14"
FONT_ASCENT 15
FONT_DESCENT 4
UNDERLINE_POSITION -3
UNDERLINE_THICKNESS 2
X_HEIGHT 9
CAP_HEIGHT 13
RAW_ASCENT 799
RAW_DESCENT 200
NORM_SPACE 6
RELATIVE_WEIGHT 40
RELATIVE_SETWIDTH 50
SUPERSCRIPT_X 0
SUPERSCRIPT_Y 8
SUPERSCRIPT_SIZE 12
SUBSCRIPT_X 0
SUBSCRIPT_Y 2
SUBSCRIPT_SIZE 12
AVG_LOWERCASE_WIDTH 97
AVG_UPPERCASE_WIDTH 131
ENDPROPERTIES
CHARS 126
STARTCHAR space
ENCODING 32
SWIDTH 298 0
DWIDTH 6 0
BBX 1 1 0 0
BITMAP
00
ENDCHAR
STARTCHAR exclam
ENCODING 33
SWIDTH 237 0
DWIDTH 5 0
BBX 2 16 1 -1
BITMAP
C0
C0
C0
C0
C0
C0
C0
C0
C0
C0
C0
C0
C0
00
C0
C0
ENDCHAR
STARTCHAR quotedbl
ENCODING 34
SWIDTH 424 0
DWIDTH 8 0
BBX 6 6 1 8
BITMAP
CC
CC
CC
CC
CC
CC
ENDCHAR
STARTCHAR numbersign
ENCODING 35
SWIDTH 842 0
DWIDTH 16 0
BBX 16 15 0 0
BITMAP
030C
030C
060C
7FFF
7FFF
0618
0C18
0C18
0C30
FFFE
FFFE
1830
3830
3060
3060
ENDCHAR
STARTCHAR dollar
ENCODING 36
SWIDTH 693 0
DWIDTH 13 0
BBX 10 19 2 -3
BITMAP
0C00
0C00
1F00
7F80
6C00
CC00
CC00
EC00
7F00
3F80
0DC0
0CC0
0CC0
CDC0
FF80
7F00
0C00
0C00
0C00
ENDCHAR
STARTCHAR percent
ENCODING 37
SWIDTH 820 0
DWIDTH 16 0
BBX 13 15 1 0
BITMAP
0040
78C0
FC80
CD80
CD00
FF00
7A00
0600
0600
0CF0
0DF8
1998
1998
31F8
30F0
ENDCHAR
STARTCHAR ampersand
ENCODING 38
SWIDTH 654 0
DWIDTH 12 0
BBX 12 15 0 -1
BITMAP
0700
0F80
0D80
0D80
0F00
0E00
3E60
7360
E3E0
C1E0
C0E0
E1E0
7FE0
3E30
0030
ENDCHAR
STARTCHAR quotesingle
ENCODING 39
SWIDTH 388 0
DWIDTH 7 0
BBX 2 6 3 8
BITMAP
C0
C0
C0
C0
C0
C0
ENDCHAR
STARTCHAR parenleft
ENCODING 40
SWIDTH 366 0
DWIDTH 7 0
BBX 5 19 1 -4
BITMAP
18
38
30
60
60
60
C0
C0
C0
C0
C0
C0
C0
C0
60
60
70
38
18
ENDCHAR
STARTCHAR parenright
ENCODING 41
SWIDTH 366 0
DWIDTH 7 0
BBX 6 19 0 -4
BITMAP
C0
E0
70
30
18
18
0C
0C
0C
0C
0C
0C
0C
0C
18
18
30
E0
C0
ENDCHAR
STARTCHAR asterisk
ENCODING 42
SWIDTH 529 0
DWIDTH 10 0
BBX 9 8 0 7
BITMAP
1000
1000
FF80
FF80
3C00
3600
6300
6100
ENDCHAR
STARTCHAR plus
ENCODING 43
SWIDTH 480 0
DWIDTH 9 0
BBX 8 8 0 2
BITMAP
18
18
18
FF
FF
18
18
18
ENDCHAR
STARTCHAR comma
ENCODING 44
SWIDTH 276 0
DWIDTH 5 0
BBX 3 5 2 -4
BITMAP
60
60
40
C0
C0
ENDCHAR
STARTCHAR hyphen
ENCODING 45
SWIDTH 416 0
DWIDTH 8 0
BBX 6 2 1 4
BITMAP
FC
FC
ENDCHAR
STARTCHAR period
ENCODING 46
SWIDTH 249 0
DWIDTH 4 0
BBX 2 2 1 0
BITMAP
C0
C0
ENDCHAR
STARTCHAR slash
ENCODING 47
SWIDTH 511 0
DWIDTH 10 0
BBX 8 16 1 -1
BITMAP
01
03
03
06
06
0E
0C
0C
18
18
30
30
60
60
C0
C0
ENDCHAR
STARTCHAR zero
ENCODING 48
SWIDTH 610 0
DWIDTH 12 0
BBX 11 14 0 0
BITMAP
1F00
3F80
70C0
60E0
C060
C060
C060
C060
C060
C060
60C0
71C0
3F80
1F00
ENDCHAR
STARTCHAR one
ENCODING 49
SWIDTH 450 0
DWIDTH 9 0
BBX 6 14 2 0
BITMAP
30
70
F0
B0
30
30
30
30
30
30
30
30
FC
FC
ENDCHAR
STARTCHAR two
ENCODING 50
SWIDTH 610 0
DWIDTH 12 0
BBX 8 14 2 0
BITMAP
3C
7F
E7
C3
03
06
0E
1C
70
60
C0
C0
FF
FF
ENDCHAR
STARTCHAR three
ENCODING 51
SWIDTH 610 0
DWIDTH 12 0
BBX 9 14 1 0
BITMAP
3E00
FF00
C380
0180
0180
0F00
1E00
0700
0180
0180
C180
E380
7F00
3E00
ENDCHAR
STARTCHAR four
ENCODING 52
SWIDTH 610 0
DWIDTH 12 0
BBX 11 14 0 0
BITMAP
0180
0380
0780
0D80
0D80
1980
3180
6180
FFE0
FFE0
0180
0180
0180
0180
ENDCHAR
STARTCHAR five
ENCODING 53
SWIDTH 610 0
DWIDTH 12 0
BBX 10 14 1 0
BITMAP
FFC0
FFC0
C000
C000
DF00
FF80
F1C0
E0C0
C0C0
00C0
C1C0
E380
7F00
3E00
ENDCHAR
STARTCHAR six
ENCODING 54
SWIDTH 610 0
DWIDTH 12 0
BBX 10 14 1 0
BITMAP
0600
0E00
1800
3000
6000
7F00
FF80
E1C0
C0C0
C0C0
C0C0
6180
7F80
3E00
ENDCHAR
STARTCHAR seven
ENCODING 55
SWIDTH 610 0
DWIDTH 12 0
BBX 11 14 1 0
BITMAP
FFE0
FFE0
01C0
0180
0300
0700
0600
0600
0C00
0C00
1800
1800
3000
3000
ENDCHAR
STARTCHAR eight
ENCODING 56
SWIDTH 610 0
DWIDTH 12 0
BBX 9 14 2 0
BITMAP
3E00
7F80
E180
C180
E380
7F00
3F00
6380
C180
C180
C180
E380
7F00
3E00
ENDCHAR
STARTCHAR nine
ENCODING 57
SWIDTH 610 0
DWIDTH 12 0
BBX 10 15 1 -1
BITMAP
1E00
7F80
E180
C0C0
C0C0
C0C0
E1C0
7FC0
3F80
0180
0380
0700
1E00
7C00
7000
ENDCHAR
STARTCHAR colon
ENCODING 58
SWIDTH 298 0
DWIDTH 6 0
BBX 2 9 2 1
BITMAP
C0
C0
C0
00
00
00
C0
C0
C0
ENDCHAR
STARTCHAR semicolon
ENCODING 59
SWIDTH 298 0
DWIDTH 6 0
BBX 3 12 1 -2
BITMAP
60
60
60
00
00
00
00
00
60
60
C0
C0
ENDCHAR
STARTCHAR less
ENCODING 60
SWIDTH 381 0
DWIDTH 7 0
BBX 6 8 0 2
BITMAP
0C
1C
30
60
E0
30
18
18
ENDCHAR
STARTCHAR equal
ENCODING 61
SWIDTH 510 0
DWIDTH 10 0
BBX 7 7 1 3
BITMAP
FE
FE
00
00
00
FE
FE
ENDCHAR
STARTCHAR greater
ENCODING 62
SWIDTH 381 0
DWIDTH 7 0
BBX 6 9 1 2
BITMAP
C0
E0
70
38
1C
18
70
E0
80
ENDCHAR
STARTCHAR question
ENCODING 63
SWIDTH 523 0
DWIDTH 10 0
BBX 8 14 1 -1
BITMAP
38
FE
C6
03
03
03
06
0C
18
30
00
00
60
60
ENDCHAR
STARTCHAR at
ENCODING 64
SWIDTH 931 0
DWIDTH 17 0
BBX 15 17 1 -2
BITMAP
07C0
1FF0
3838
701C
630C
E706
C606
CC86
CC86
CD8E
CFFC
E778
6000
7000
3830
1FF0
07C0
ENDCHAR
STARTCHAR A
ENCODING 65
SWIDTH 731 0
DWIDTH 13 0
BBX 11 14 1 0
BITMAP
0300
0300
0700
0D00
0D80
1980
1980
1F80
3FC0
78C0
60C0
60C0
C060
C060
ENDCHAR
STARTCHAR B
ENCODING 66
SWIDTH 630 0
DWIDTH 12 0
BBX 10 14 1 0
BITMAP
FC00
FF00
C380
C180
C180
C180
C700
FE00
FF80
C1C0
C0C0
C380
FF00
FC00
ENDCHAR
STARTCHAR C
ENCODING 67
SWIDTH 602 0
DWIDTH 11 0
BBX 10 14 0 0
BITMAP
07C0
0FC0
18C0
30C0
7000
6000
E000
C000
C000
C000
C0C0
61C0
7F80
1E00
ENDCHAR
STARTCHAR D
ENCODING 68
SWIDTH 721 0
DWIDTH 14 0
BBX 11 14 2 0
BITMAP
E000
F800
DE00
C700
C1C0
C0C0
C060
C060
C060
C060
C0C0
C1C0
FF80
3E00
ENDCHAR
STARTCHAR E
ENCODING 69
SWIDTH 624 0
DWIDTH 12 0
BBX 10 14 1 0
BITMAP
FF80
FFC0
C000
C000
C000
C000
FF80
FF80
C000
C000
C000
C000
FF80
7F80
ENDCHAR
STARTCHAR F
ENCODING 70
SWIDTH 606 0
DWIDTH 12 0
BBX 10 14 2 0
BITMAP
FF00
FFC0
C0C0
C000
C000
FF80
FF80
E000
C000
C000
C000
C000
C000
C000
ENDCHAR
STARTCHAR G
ENCODING 71
SWIDTH 679 0
DWIDTH 13 0
BBX 12 14 0 0
BITMAP
0700
1FC0
38C0
3000
6000
6000
C3F0
CFF0
CC60
C0E0
C0C0
E180
7F00
3E00
ENDCHAR
STARTCHAR H
ENCODING 72
SWIDTH 768 0
DWIDTH 15 0
BBX 12 14 1 0
BITMAP
C030
C030
C030
C030
C030
C030
C3F0
FFF0
FC30
C030
C030
C030
C030
C030
ENDCHAR
STARTCHAR I
ENCODING 73
SWIDTH 546 0
DWIDTH 10 0
BBX 8 14 1 0
BITMAP
FF
FF
18
18
18
18
18
18
18
18
18
18
FF
FF
ENDCHAR
STARTCHAR J
ENCODING 74
SWIDTH 665 0
DWIDTH 13 0
BBX 11 14 1 0
BITMAP
3FE0
3FE0
0300
0300
0300
0300
0300
0300
0300
C300
C300
E700
7F00
1E00
ENDCHAR
STARTCHAR K
ENCODING 75
SWIDTH 610 0
DWIDTH 12 0
BBX 10 14 1 0
BITMAP
C180
C380
C700
CE00
DC00
D800
F000
F000
F800
DC00
CE00
C700
C3C0
C0C0
ENDCHAR
STARTCHAR L
ENCODING 76
SWIDTH 550 0
DWIDTH 10 0
BBX 8 14 1 0
BITMAP
C0
C0
C0
C0
C0
C0
C0
C0
C0
C0
C0
C0
FF
FF
ENDCHAR
STARTCHAR M
ENCODING 77
SWIDTH 882 0
DWIDTH 17 0
BBX 15 15 1 -1
BITMAP
0C18
1C18
1C38
1C38
1C38
3668
366C
366C
36CC
66CC
66CC
6384
E386
C386
C306
ENDCHAR
STARTCHAR N
ENCODING 78
SWIDTH 796 0
DWIDTH 15 0
BBX 13 14 1 0
BITMAP
C010
E018
E018
F018
D818
CC18
CE18
C718
C318
C198
C0D8
C078
C038
C018
ENDCHAR
STARTCHAR O
ENCODING 79
SWIDTH 798 0
DWIDTH 15 0
BBX 13 14 1 0
BITMAP
07C0
1FF0
3830
7018
6018
E018
C018
C018
C038
C030
E070
70E0
3FC0
0F80
ENDCHAR
STARTCHAR P
ENCODING 80
SWIDTH 520 0
DWIDTH 10 0
BBX 8 14 1 0
BITMAP
F8
FE
C7
C3
C3
C3
C6
FE
F8
C0
C0
C0
C0
C0
ENDCHAR
STARTCHAR Q
ENCODING 81
SWIDTH 876 0
DWIDTH 17 0
BBX 16 18 1 -4
BITMAP
07E0
1FF8
3C38
700C
600C
C006
C006
C006
C006
E306
638C
39FC
1FF8
0FB8
001C
000E
0007
0002
ENDCHAR
STARTCHAR R
ENCODING 82
SWIDTH 628 0
DWIDTH 12 0
BBX 10 14 1 0
BITMAP
F800
FE00
C700
C300
C180
C180
C180
C700
FE00
FC00
CE00
C380
C1C0
C0C0
ENDCHAR
STARTCHAR S
ENCODING 83
SWIDTH 693 0
DWIDTH 13 0
BBX 11 14 1 0
BITMAP
0F80
1FC0
3000
6000
6000
7F80
1FC0
01E0
0060
0060
C060
E1C0
7F80
3F00
ENDCHAR
STARTCHAR T
ENCODING 84
SWIDTH 679 0
DWIDTH 13 0
BBX 10 14 2 0
BITMAP
FFC0
FFC0
0C00
0C00
0C00
0C00
0C00
0C00
0C00
0C00
0C00
0C00
0C00
0C00
ENDCHAR
STARTCHAR U
ENCODING 85
SWIDTH 736 0
DWIDTH 14 0
BBX 11 14 2 0
BITMAP
C060
C060
C060
C060
C060
C060
C060
C060
C060
C0C0
E0C0
71C0
3F80
1F00
ENDCHAR
STARTCHAR V
ENCODING 86
SWIDTH 649 0
DWIDTH 12 0
BBX 11 14 1 0
BITMAP
C060
C060
C0C0
40C0
6180
6180
6180
6300
3300
3600
3600
3E00
1C00
1C00
ENDCHAR
STARTCHAR W
ENCODING 87
SWIDTH 1039 0
DWIDTH 19 0
BBX 18 14 1 0
BITMAP
C0C0C0
C1C1C0
C1C180
61C180
636180
636300
336300
336600
366600
366600
146C00
1C6C00
1C7800
1C3800
ENDCHAR
STARTCHAR X
ENCODING 88
SWIDTH 723 0
DWIDTH 14 0
BBX 12 14 1 0
BITMAP
6030
7070
3060
18C0
1D80
0F80
0700
0F00
0F80
1980
30C0
7060
E070
C030
ENDCHAR
STARTCHAR Y
ENCODING 89
SWIDTH 635 0
DWIDTH 12 0
BBX 11 15 0 -1
BITMAP
C060
C060
60C0
30C0
3180
1980
1B80
0F00
0700
0600
0600
0C00
0C00
1800
1800
ENDCHAR
STARTCHAR Z
ENCODING 90
SWIDTH 693 0
DWIDTH 13 0
BBX 12 14 1 0
BITMAP
FFF0
FFF0
00E0
0180
0300
0600
0E00
0C00
1800
3000
6000
C000
FFF0
FFF0
ENDCHAR
STARTCHAR bracketleft
ENCODING 91
SWIDTH 376 0
DWIDTH 7 0
BBX 5 19 2 -4
BITMAP
F8
F8
C0
C0
C0
C0
C0
C0
C0
C0
C0
C0
C0
C0
C0
C0
C0
F8
F8
ENDCHAR
STARTCHAR backslash
ENCODING 92
SWIDTH 549 0
DWIDTH 11 0
BBX 8 15 2 -1
BITMAP
C0
C0
60
60
30
30
18
18
0C
0C
0C
06
06
03
03
ENDCHAR
STARTCHAR bracketright
ENCODING 93
SWIDTH 376 0
DWIDTH 7 0
BBX 5 19 1 -4
BITMAP
F8
F8
18
18
18
18
18
18
18
18
18
18
18
18
18
18
18
F8
F8
ENDCHAR
STARTCHAR asciicircum
ENCODING 94
SWIDTH 581 0
DWIDTH 11 0
BBX 8 5 2 10
BITMAP
18
3C
76
E3
C1
ENDCHAR
STARTCHAR underscore
ENCODING 95
SWIDTH 626 0
DWIDTH 12 0
BBX 12 2 0 -3
BITMAP
FFF0
FFF0
ENDCHAR
STARTCHAR grave
ENCODING 96
SWIDTH 556 0
DWIDTH 11 0
BBX 4 4 1 11
BITMAP
C0
60
30
30
ENDCHAR
STARTCHAR a
ENCODING 97
SWIDTH 511 0
DWIDTH 10 0
BBX 9 10 1 0
BITMAP
1E00
3F00
7300
E300
C300
C300
C300
E300
7F80
3D80
ENDCHAR
STARTCHAR b
ENCODING 98
SWIDTH 593 0
DWIDTH 11 0
BBX 9 15 1 0
BITMAP
C000
C000
C000
C000
C000
DE00
FF00
E300
C180
C180
C180
C180
C300
FF00
FC00
ENDCHAR
STARTCHAR c
ENCODING 99
SWIDTH 513 0
DWIDTH 10 0
BBX 8 10 1 0
BITMAP
1E
3F
73
60
C0
C0
C0
E3
7F
3C
ENDCHAR
STARTCHAR d
ENCODING 100
SWIDTH 587 0
DWIDTH 11 0
BBX 9 15 1 0
BITMAP
0180
0180
0180
0180
0180
3D80
7F80
6380
C180
C180
C180
C180
E380
7F80
3D80
ENDCHAR
STARTCHAR e
ENCODING 101
SWIDTH 547 0
DWIDTH 10 0
BBX 8 10 1 0
BITMAP
3E
7F
E3
C7
CE
FC
F0
E1
7F
3C
ENDCHAR
STARTCHAR f
ENCODING 102
SWIDTH 508 0
DWIDTH 10 0
BBX 8 15 1 0
BITMAP
0F
1F
38
30
30
FF
FF
30
30
30
30
30
30
30
30
ENDCHAR
STARTCHAR g
ENCODING 103
SWIDTH 530 0
DWIDTH 10 0
BBX 8 15 1 -5
BITMAP
1E
7F
63
C3
C3
C3
C7
C7
7F
3B
03
07
06
FE
FC
ENDCHAR
STARTCHAR h
ENCODING 104
SWIDTH 577 0
DWIDTH 10 0
BBX 8 15 1 0
BITMAP
C0
C0
C0
C0
C0
CE
FF
F3
E3
C3
C3
C3
C3
C3
C3
ENDCHAR
STARTCHAR i
ENCODING 105
SWIDTH 280 0
DWIDTH 4 0
BBX 2 14 1 0
BITMAP
C0
C0
00
00
C0
C0
C0
C0
C0
C0
C0
C0
C0
C0
ENDCHAR
STARTCHAR j
ENCODING 106
SWIDTH 403 0
DWIDTH 8 0
BBX 6 20 0 -6
BITMAP
0C
0C
00
00
0C
0C
0C
0C
0C
0C
0C
0C
0C
0C
0C
8C
CC
4C
78
38
ENDCHAR
STARTCHAR k
ENCODING 107
SWIDTH 540 0
DWIDTH 10 0
BBX 8 15 1 0
BITMAP
C0
C0
C0
C0
C0
C2
C6
CC
D8
F8
FC
CC
C6
C3
C3
ENDCHAR
STARTCHAR l
ENCODING 108
SWIDTH 273 0
DWIDTH 5 0
BBX 2 15 2 0
BITMAP
C0
C0
C0
C0
C0
C0
C0
C0
C0
C0
C0
C0
C0
C0
C0
ENDCHAR
STARTCHAR m
ENCODING 109
SWIDTH 776 0
DWIDTH 15 0
BBX 13 10 1 0
BITMAP
CE70
DFF8
FB98
E318
C318
C318
C318
C318
C318
C318
ENDCHAR
STARTCHAR n
ENCODING 110
SWIDTH 523 0
DWIDTH 10 0
BBX 8 10 1 0
BITMAP
CE
FF
F3
E3
C3
C3
C3
C3
C3
C3
ENDCHAR
STARTCHAR o
ENCODING 111
SWIDTH 525 0
DWIDTH 10 0
BBX 8 10 1 0
BITMAP
3C
7E
67
C3
C3
C3
C3
E6
7E
3C
ENDCHAR
STARTCHAR p
ENCODING 112
SWIDTH 534 0
DWIDTH 10 0
BBX 8 16 1 -5
BITMAP
C0
DC
FE
E7
C3
C3
C3
C3
C7
FE
FC
C0
C0
C0
C0
C0
ENDCHAR
STARTCHAR q
ENCODING 113
SWIDTH 520 0
DWIDTH 10 0
BBX 8 15 1 -5
BITMAP
1F
3F
73
E3
C3
C3
C3
E7
7F
3F
03
03
03
03
03
ENDCHAR
STARTCHAR r
ENCODING 114
SWIDTH 480 0
DWIDTH 9 0
BBX 7 10 1 0
BITMAP
CE
FE
E6
C6
C0
C0
C0
C0
C0
C0
ENDCHAR
STARTCHAR s
ENCODING 115
SWIDTH 486 0
DWIDTH 9 0
BBX 7 10 1 0
BITMAP
0E
7E
E6
C0
F8
3C
06
86
FE
7C
ENDCHAR
STARTCHAR t
ENCODING 116
SWIDTH 471 0
DWIDTH 8 0
BBX 8 13 0 0
BITMAP
18
18
18
FF
FF
18
18
18
18
18
18
18
18
ENDCHAR
STARTCHAR u
ENCODING 117
SWIDTH 520 0
DWIDTH 10 0
BBX 8 10 1 0
BITMAP
C3
C3
C3
C3
C3
C3
C3
C3
FF
7F
ENDCHAR
STARTCHAR v
ENCODING 118
SWIDTH 486 0
DWIDTH 9 0
BBX 8 10 1 0
BITMAP
C3
C3
C3
66
66
64
3C
3C
38
18
ENDCHAR
STARTCHAR w
ENCODING 119
SWIDTH 684 0
DWIDTH 14 0
BBX 12 10 1 0
BITMAP
C630
CE30
CE60
CE60
DE60
DEC0
DAC0
72C0
7380
6380
ENDCHAR
STARTCHAR x
ENCODING 120
SWIDTH 590 0
DWIDTH 11 0
BBX 10 10 0 0
BITMAP
60C0
71C0
3B80
1F00
0E00
1E00
3F00
7380
E1C0
C0C0
ENDCHAR
STARTCHAR y
ENCODING 121
SWIDTH 520 0
DWIDTH 10 0
BBX 10 15 0 -5
BITMAP
C0C0
C1C0
6180
6180
3300
3300
1E00
1E00
0C00
0C00
1800
1800
1000
3000
3000
ENDCHAR
STARTCHAR z
ENCODING 122
SWIDTH 538 0
DWIDTH 11 0
BBX 9 10 1 0
BITMAP
FF80
FF80
0700
0600
0C00
1C00
3800
7000
FF80
FF80
ENDCHAR
STARTCHAR braceleft
ENCODING 123
SWIDTH 366 0
DWIDTH 7 0
BBX 6 19 0 -4
BITMAP
1C
3C
30
30
30
30
30
30
70
E0
E0
70
30
30
30
30
30
1C
0C
ENDCHAR
STARTCHAR bar
ENCODING 124
SWIDTH 421 0
DWIDTH 8 0
BBX 2 19 3 -3
BITMAP
C0
C0
C0
C0
C0
C0
C0
C0
C0
C0
C0
C0
C0
C0
C0
C0
C0
C0
C0
ENDCHAR
STARTCHAR braceright
ENCODING 125
SWIDTH 366 0
DWIDTH 7 0
BBX 7 19 0 -4
BITMAP
E0
F0
18
18
18
18
18
18
1C
0E
0E
1C
18
18
18
18
38
F0
E0
ENDCHAR
STARTCHAR asciitilde
ENCODING 126
SWIDTH 597 0
DWIDTH 12 0
BBX 10 5 1 4
BITMAP
3800
7CC0
6CC0
C7C0
C780
ENDCHAR
STARTCHAR uni00A0
ENCODING 160
SWIDTH 298 0
DWIDTH 6 0
BBX 1 1 0 0
BITMAP
00
ENDCHAR
STARTCHAR exclamdown
ENCODING 161
SWIDTH 237 0
DWIDTH 4 0
BBX 2 15 1 -1
BITMAP
C0
C0
00
C0
C0
C0
C0
C0
C0
C0
C0
C0
C0
C0
C0
ENDCHAR
STARTCHAR cent
ENCODING 162
SWIDTH 623 0
DWIDTH 12 0
BBX 9 16 1 0
BITMAP
0C00
0C00
1E80
3F80
6D80
6C00
CC00
CC00
CC00
CC80
CC80
6D80
7F00
1E00
0C00
0C00
ENDCHAR
STARTCHAR sterling
ENCODING 163
SWIDTH 793 0
DWIDTH 14 0
BBX 13 17 0 -2
BITMAP
07C0
0FE0
1C30
1830
3000
3000
3000
FFC0
FFC0
1000
1800
1800
1800
1818
3E18
7FF8
01E0
ENDCHAR
STARTCHAR currency
ENCODING 164
SWIDTH 611 0
DWIDTH 12 0
BBX 11 11 0 2
BITMAP
6000
7060
3FE0
1FC0
3180
3180
3180
3F00
6F80
C1C0
C0C0
ENDCHAR
STARTCHAR yen
ENCODING 165
SWIDTH 635 0
DWIDTH 12 0
BBX 10 14 1 0
BITMAP
C0C0
E0C0
6180
3180
F3C0
FBC0
1E00
0C00
3F00
3F00
0C00
0C00
0C00
0C00
ENDCHAR
STARTCHAR brokenbar
ENCODING 166
SWIDTH 404 0
DWIDTH 8 0
BBX 2 15 3 0
BITMAP
C0
C0
C0
C0
C0
C0
00
00
C0
C0
C0
C0
C0
C0
C0
ENDCHAR
STARTCHAR section
ENCODING 167
SWIDTH 634 0
DWIDTH 12 0
BBX 9 14 1 0
BITMAP
1E00
7F80
6180
6000
7000
DE00
C380
7180
3F80
0380
C180
E180
7F80
3E00
ENDCHAR
STARTCHAR dieresis
ENCODING 168
SWIDTH 556 0
DWIDTH 11 0
BBX 7 2 2 11
BITMAP
C6
C6
ENDCHAR
STARTCHAR copyright
ENCODING 169
SWIDTH 795 0
DWIDTH 15 0
BBX 13 14 1 1
BITMAP
07C0
1FE0
3870
7730
6F18
DC18
D818
D898
DF98
CF30
6070
70E0
3FC0
0F80
ENDCHAR
STARTCHAR ordfeminine
ENCODING 170
SWIDTH 526 0
DWIDTH 10 0
BBX 8 7 1 7
BITMAP
3C
7E
C6
C6
CB
7B
73
ENDCHAR
STARTCHAR guillemotleft
ENCODING 171
SWIDTH 577 0
DWIDTH 11 0
BBX 9 8 0 2
BITMAP
1980
1980
3300
EE00
CC00
6200
3100
1980
ENDCHAR
STARTCHAR logicalnot
ENCODING 172
SWIDTH 480 0
DWIDTH 9 0
BBX 8 5 0 2
BITMAP
FF
FF
03
03
03
ENDCHAR
STARTCHAR uni00AD
ENCODING 173
SWIDTH 416 0
DWIDTH 8 0
BBX 6 2 1 4
BITMAP
FC
FC
ENDCHAR
STARTCHAR registered
ENCODING 174
SWIDTH 795 0
DWIDTH 15 0
BBX 13 13 1 2
BITMAP
0FC0
3FE0
7870
7F30
DF98
D998
DF18
DE18
DB38
F930
70E0
3FC0
1F80
ENDCHAR
STARTCHAR macron
ENCODING 175
SWIDTH 626 0
DWIDTH 12 0
BBX 12 2 0 16
BITMAP
FFF0
FFF0
ENDCHAR
STARTCHAR degree
ENCODING 176
SWIDTH 409 0
DWIDTH 8 0
BBX 7 7 0 9
BITMAP
38
7C
C6
C6
C6
7C
78
ENDCHAR
STARTCHAR plusminus
ENCODING 177
SWIDTH 480 0
DWIDTH 9 0
BBX 8 12 0 -2
BITMAP
18
18
18
FF
FF
18
18
18
00
00
FF
FF
ENDCHAR
STARTCHAR uni00B2
ENCODING 178
SWIDTH 650 0
DWIDTH 12 0
BBX 5 8 4 8
BITMAP
70
F8
98
10
20
C0
F8
F8
ENDCHAR
STARTCHAR uni00B3
ENCODING 179
SWIDTH 650 0
DWIDTH 12 0
BBX 6 8 3 8
BITMAP
F8
FC
0C
18
0C
0C
FC
F8
ENDCHAR
STARTCHAR acute
ENCODING 180
SWIDTH 556 0
DWIDTH 9 0
BBX 4 4 2 11
BITMAP
30
60
40
C0
ENDCHAR
STARTCHAR mu
ENCODING 181
SWIDTH 520 0
DWIDTH 10 0
BBX 11 14 -1 -4
BITMAP
1860
1860
18E0
30C0
30C0
30C0
31C0
3180
3F80
7F80
6000
6000
C000
C000
ENDCHAR
STARTCHAR paragraph
ENCODING 182
SWIDTH 693 0
DWIDTH 13 0
BBX 11 16 1 -2
BITMAP
03E0
1FE0
3B60
6360
C360
C360
C360
C360
E7C0
7EC0
3EC0
06C0
06C0
0FC0
0D80
0D80
ENDCHAR
STARTCHAR periodcentered
ENCODING 183
SWIDTH 249 0
DWIDTH 5 0
BBX 2 2 1 6
BITMAP
C0
C0
ENDCHAR
STARTCHAR cedilla
ENCODING 184
SWIDTH 556 0
DWIDTH 11 0
BBX 5 4 2 -4
BITMAP
70
38
18
F0
ENDCHAR
STARTCHAR uni00B9
ENCODING 185
SWIDTH 650 0
DWIDTH 12 0
BBX 6 8 4 8
BITMAP
30
F0
F0
30
30
30
FC
FC
ENDCHAR
STARTCHAR ordmasculine
ENCODING 186
SWIDTH 449 0
DWIDTH 9 0
BBX 8 8 0 8
BITMAP
3C
7E
E7
C3
C3
E7
7E
3C
ENDCHAR
STARTCHAR guillemotright
ENCODING 187
SWIDTH 577 0
DWIDTH 11 0
BBX 9 8 1 2
BITMAP
CC00
CC00
6600
3B80
1980
2300
4600
CC00
ENDCHAR
STARTCHAR onequarter
ENCODING 188
SWIDTH 650 0
DWIDTH 12 0
BBX 9 21 2 -4
BITMAP
0C00
1C00
3C00
0C00
0C00
0C00
1E00
1E00
0000
0000
FF80
FF80
0000
0400
0C00
1C00
3C00
6C00
7F00
0C00
0C00
ENDCHAR
STARTCHAR onehalf
ENCODING 189
SWIDTH 650 0
DWIDTH 12 0
BBX 9 21 2 -4
BITMAP
0C00
1C00
3C00
0C00
0C00
0C00
3F00
3F00
0000
0000
FF80
FF80
0000
1C00
3E00
2600
0600
0C00
1000
3E00
3E00
ENDCHAR
STARTCHAR threequarters
ENCODING 190
SWIDTH 650 0
DWIDTH 12 0
BBX 10 20 1 -4
BITMAP
3C00
3E00
0600
0600
0E00
0600
3E00
3C00
0000
7FC0
7FC0
0000
0C00
1C00
3C00
2C00
CC00
FF00
0C00
0C00
ENDCHAR
ENDFONT
